HIERARCHY
ROOT Hips
{
  OFFSET 52.589 85.7893 7.5745
  CHANNELS 6 Xposition Yposition Zposition Zrotation Xrotation Yrotation
  JOINT spine
  {
    OFFSET 0 6.3926 0.367606
    CHANNELS 3 Zrotation Xrotation Yrotation
    JOINT spine1
    {
      OFFSET 0 9.17611 0
      CHANNELS 3 Zrotation Xrotation Yrotation
      JOINT spine2
      {
        OFFSET 0 8.79238 0
        CHANNELS 3 Zrotation Xrotation Yrotation
        JOINT Neck
        {
          OFFSET 0 22.5737 1.07624
          CHANNELS 3 Zrotation Xrotation Yrotation
          JOINT Head
          {
            OFFSET 0 6.82011 0
            CHANNELS 3 Zrotation Xrotation Yrotation
            End Site
            {
              OFFSET 0 16.5085 -5.44427
            }
          }
        }
        JOINT RightShoulder
        {
          OFFSET -3.70221 9.49509 -0.515508
          CHANNELS 3 Zrotation Xrotation Yrotation
          JOINT RightArm
          {
            OFFSET 0 12.4537 0
            CHANNELS 3 Zrotation Xrotation Yrotation
            JOINT RightArmRoll
            {
              OFFSET 0 6.28685 0
              CHANNELS 3 Zrotation Xrotation Yrotation
              JOINT RightForeArm
              {
                OFFSET 0 18.3114 0
                CHANNELS 3 Zrotation Xrotation Yrotation
                JOINT RightForeArmRoll
                {
                  OFFSET 0 7.05482 0
                  CHANNELS 3 Zrotation Xrotation Yrotation
                  JOINT RightHand
                  {
                    OFFSET 0 14.1575 0
                    CHANNELS 3 Zrotation Xrotation Yrotation
                    End Site
                    {
                      OFFSET 0 0 0
                    }
                  }
                }
              }
            }
          }
        }
        JOINT LeftShoulder
        {
          OFFSET 3.70221 9.49509 -0.515508
          CHANNELS 3 Zrotation Xrotation Yrotation
          JOINT LeftArm
          {
            OFFSET 0 12.4537 0
            CHANNELS 3 Zrotation Xrotation Yrotation
            JOINT LeftArmRoll
            {
              OFFSET 0 6.28685 0
              CHANNELS 3 Zrotation Xrotation Yrotation
              JOINT LeftForeArm
              {
                OFFSET 0 18.3114 0
                CHANNELS 3 Zrotation Xrotation Yrotation
                JOINT LeftForeArmRoll
                {
                  OFFSET 0 7.05482 0
                  CHANNELS 3 Zrotation Xrotation Yrotation
                  JOINT LeftHand
                  {
                    OFFSET 0 14.1575 0
                    CHANNELS 3 Zrotation Xrotation Yrotation
                    End Site
                    {
                      OFFSET 0 0 0
                    }
                  }
                }
              }
            }
          }
        }
      }
    }
  }
  JOINT RightUpLeg
  {
    OFFSET -5.66616 -1.03903 -0.87161
    CHANNELS 3 Zrotation Xrotation Yrotation
    JOINT RightUpLegRoll
    {
      OFFSET 0 16.6005 0
      CHANNELS 3 Zrotation Xrotation Yrotation
      JOINT RightLeg
      {
        OFFSET 0 -20.5572 0
        CHANNELS 3 Zrotation Xrotation Yrotation
        JOINT RightLegRoll
        {
          OFFSET 0 20.6244 0
          CHANNELS 3 Zrotation Xrotation Yrotation
          JOINT RightFoot
          {
            OFFSET 0 17.1664 0
            CHANNELS 3 Zrotation Xrotation Yrotation
            JOINT RightToeBase
            {
              OFFSET 0 14.3502 0
              CHANNELS 3 Zrotation Xrotation Yrotation
              End Site
              {
                OFFSET 0.00608252 6.9497 -0.801061
              }
            }
          }
        }
      }
    }
  }
  JOINT LeftUpLeg
  {
    OFFSET 5.66616 -1.03903 -0.87161
    CHANNELS 3 Zrotation Xrotation Yrotation
    JOINT LeftUpLegRoll
    {
      OFFSET 0 16.6006 0
      CHANNELS 3 Zrotation Xrotation Yrotation
      JOINT LeftLeg
      {
        OFFSET 0 20.5571 0
        CHANNELS 3 Zrotation Xrotation Yrotation
        JOINT LeftLegRoll
        {
          OFFSET 0 20.8151 0
          CHANNELS 3 Zrotation Xrotation Yrotation
          JOINT LeftFoot
          {
            OFFSET 0 16.9757 0
            CHANNELS 3 Zrotation Xrotation Yrotation
            JOINT LeftToeBase
            {
              OFFSET 0 14.3502 0
              CHANNELS 3 Zrotation Xrotation Yrotation
              End Site
              {
                OFFSET -0.0272592 6.9497 -0.801061
              }
            }
          }
        }
      }
    }
  }
}
MOTION
Frames: 10
Frame Time: 0.00208333
52.2436 85.5952 8.08788 0.223033 0.675438 0.321598 -0.086934 -2.03042 -0.0643901 -0.189049 -0.0579226 -0.12733 -0.18753 1.58715 -0.124098 -1.92989 7.11346 1.00213 1.05212 7.58254 0.505173 29.2602 -14.1812 -10.6097 68.1276 34.5228 40.4365 1.89568e-06 -7.91633e-07 2.96684e-07 -4.00074 1.20224 -0.40654 2.74961e-07 -2.56643e-06 -3.00215 8.03012 -4.95136 0.697617 -31.5258 -17.7692 14.2617 -69.2635 32.7555 -36.2111 -2.80367e-06 -2.22681e-07 2.45298e-06 7.39909 3.10201 0.251966 1.18199e-06 8.87043e-08 3.00001 -8.0304 -4.95134 -0.697615 174.051 1.20726 1.38799 180 7.01548e-15 178.926 176.782 5.22602 179.778 4.00052e-07 2.66891e-06 0.0426739 -18.5251 67.9378 19.4808 8.13649 25.2327 -3.48773 -174.977 1.07418 0.593263 4.54188e-06 -4.6773e-06 -1.08533 -1.30664 -6.39025 0.366836 5.81824e-08 -4.00362e-06 -0.119561 19.8051 69.2981 -20.6802 -8.13771 25.2507 3.46369 
52.2589 85.6046 8.09348 0.224977 0.688353 0.32306 -0.0870907 -2.03277 -0.0647719 -0.189837 -0.0626189 -0.128311 -0.188302 1.58245 -0.125059 -1.89183 7.10697 0.996461 0.98702 7.58173 0.508539 29.2565 -14.1822 -10.6111 68.1328 34.5243 40.4364 1.89568e-06 -7.91633e-07 2.96684e-07 -4.00181 1.21074 -0.405887 2.74961e-07 -2.56643e-06 -3.00215 8.03012 -4.95136 0.697617 -31.5295 -17.7776 14.2702 -69.2612 32.7556 -36.1994 -2.80367e-06 -2.22681e-07 2.45298e-06 7.38636 3.1208 0.250174 1.18199e-06 8.87043e-08 3.00001 -8.0304 -4.95134 -0.697615 174.046 1.2346 1.38562 180 7.01548e-15 178.926 176.788 5.24711 179.777 4.00052e-07 2.66891e-06 0.0423548 -18.5196 67.942 19.4846 8.13649 25.2327 -3.48773 -174.979 1.1017 0.584116 4.54188e-06 -4.6773e-06 -1.08479 -1.32376 -6.43062 0.36482 5.81824e-08 -4.00362e-06 -0.120612 19.8234 69.3187 -20.6996 -8.13779 25.2519 3.46214 
52.2542 85.6061 8.12384 0.225935 0.698818 0.324807 -0.0871761 -2.03467 -0.0651198 -0.190364 -0.0664109 -0.129116 -0.188817 1.57866 -0.125851 -1.86278 7.1015 0.991706 0.938617 7.58207 0.510695 29.2539 -14.184 -10.6132 68.1363 34.5267 40.4368 1.89568e-06 -7.91633e-07 2.96684e-07 -4.00279 1.21714 -0.405385 2.74961e-07 -2.56643e-06 -3.00215 8.03012 -4.95136 0.697617 -31.532 -17.7843 14.2771 -69.2589 32.7568 -36.1898 -2.80367e-06 -2.22681e-07 2.45298e-06 7.37586 3.13405 0.248988 1.18199e-06 8.87043e-08 3.00001 -8.0304 -4.95134 -0.697615 174.043 1.25593 1.38325 180 7.01548e-15 178.927 176.794 5.2632 179.776 4.00052e-07 2.66891e-06 0.0420739 -18.5154 67.9453 19.4875 8.13649 25.2327 -3.48773 -174.98 1.12373 0.576809 4.54188e-06 -4.6773e-06 -1.0844 -1.3369 -6.46169 0.363153 5.81824e-08 -4.00362e-06 -0.121346 19.8371 69.3343 -20.7143 -8.13785 25.2528 3.46093 
52.2482 85.545 8.11292 0.225759 0.706398 0.326874 -0.0871806 -2.03603 -0.065425 -0.190593 -0.0691369 -0.129715 -0.189038 1.57593 -0.126443 -1.84428 7.09727 0.988027 0.909721 7.58371 0.511442 29.2528 -14.1865 -10.6161 68.1378 34.5299 40.4375 1.89568e-06 -7.91633e-07 2.96684e-07 -4.00364 1.22108 -0.405061 2.74961e-07 -2.56643e-06 -3.00215 8.03012 -4.95136 0.697617 -31.5332 -17.789 14.282 -69.2566 32.7595 -36.1824 -2.80367e-06 -2.22681e-07 2.45298e-06 7.36799 3.14088 0.248503 1.18199e-06 8.87043e-08 3.00001 -8.0304 -4.95134 -0.697615 174.041 1.27022 1.38087 180 7.01548e-15 178.927 176.798 5.27343 179.776 4.00052e-07 2.66891e-06 0.0418388 -18.5128 67.9473 19.4894 8.13649 25.2327 -3.48773 -174.98 1.1393 0.571671 4.54188e-06 -4.6773e-06 -1.08417 -1.34539 -6.48183 0.3619 5.81824e-08 -4.00362e-06 -0.121713 19.8456 69.3439 -20.7233 -8.13789 25.2534 3.46011 
52.2685 85.5545 8.08285 0.224303 0.710659 0.329299 -0.0870945 -2.03678 -0.0656787 -0.190488 -0.0706351 -0.13008 -0.188927 1.57443 -0.126809 -1.83785 7.09447 0.985584 0.903135 7.58683 0.510583 29.2533 -14.19 -10.6199 68.137 34.5341 40.4387 1.89568e-06 -7.91633e-07 2.96684e-07 -4.00433 1.22222 -0.404941 2.74961e-07 -2.56643e-06 -3.00215 8.03012 -4.95136 0.697617 -31.5328 -17.7915 14.2847 -69.2546 32.7636 -36.1778 -2.80367e-06 -2.22681e-07 2.45298e-06 7.36312 3.14041 0.248813 1.18199e-06 8.87043e-08 3.00001 -8.0304 -4.95134 -0.697615 174.043 1.27643 1.3785 180 7.01548e-15 178.927 176.801 5.277 179.776 4.00052e-07 2.66891e-06 0.0416574 -18.5119 67.9478 19.49 8.13649 25.2327 -3.48773 -174.978 1.14742 0.569034 4.54188e-06 -4.6773e-06 -1.08415 -1.34853 -6.4894 0.361126 5.81824e-08 -4.00362e-06 -0.121661 19.8479 69.3467 -20.726 -8.13791 25.2537 3.45975 
52.2562 85.5977 8.08704 0.221268 0.711259 0.332265 -0.0868847 -2.03685 -0.0658904 -0.189967 -0.070757 -0.13017 -0.188406 1.57431 -0.12691 -1.84441 7.09269 0.984357 0.920978 7.59212 0.507891 29.2556 -14.1949 -10.625 68.1335 34.5398 40.4405 1.89568e-06 -7.91633e-07 2.96684e-07 -4.00486 1.22019 -0.40505 2.74961e-07 -2.56643e-06 -3.00215 8.03012 -4.95136 0.697617 -31.5308 -17.7918 14.2852 -69.2525 32.7702 -36.1761 -2.80367e-06 -2.22681e-07 2.45298e-06 7.36155 3.13146 0.250057 1.18199e-06 8.87043e-08 3.00001 -8.0304 -4.95134 -0.697615 174.047 1.27377 1.37617 180 7.01548e-15 178.927 176.802 5.27334 179.776 4.00052e-07 2.66891e-06 0.0415245 -18.5129 67.9468 19.4893 8.13649 25.2327 -3.48773 -174.975 1.14779 0.568941 4.54188e-06 -4.6773e-06 -1.08435 -1.34591 -6.48401 0.360834 5.81824e-08 -4.00362e-06 -0.121151 19.8438 69.3424 -20.7219 -8.1379 25.2536 3.45989 
52.2454 85.5827 8.09862 0.216608 0.708448 0.335866 -0.0865382 -2.03626 -0.0660775 -0.189017 -0.0695808 -0.129993 -0.187459 1.57549 -0.126754 -1.86286 7.09138 0.984142 0.961559 7.5999 0.503425 29.2599 -14.2013 -10.6317 68.1273 34.5473 40.4429 1.89568e-06 -7.91633e-07 2.96684e-07 -4.00524 1.2151 -0.405376 2.74961e-07 -2.56643e-06 -3.00215 8.03012 -4.95136 0.697617 -31.5271 -17.7901 14.2839 -69.2502 32.7798 -36.177 -2.80367e-06 -2.22681e-07 2.45298e-06 7.36299 3.11421 0.252228 1.18199e-06 8.87043e-08 3.00001 -8.0304 -4.95134 -0.697615 174.054 1.26288 1.37394 180 7.01548e-15 178.927 176.8 5.26305 179.776 4.00052e-07 2.66891e-06 0.0414269 -18.5156 67.9443 19.4873 8.13649 25.2327 -3.48773 -174.97 1.14133 0.571043 4.54188e-06 -4.6773e-06 -1.08477 -1.33803 -6.46723 0.360956 5.81824e-08 -4.00362e-06 -0.120214 19.8338 69.3319 -20.7119 -8.13787 25.2531 3.46053 
52.2473 85.6017 8.09065 0.21055 0.702682 0.340001 -0.0860751 -2.03511 -0.0662428 -0.187694 -0.0672842 -0.129586 -0.186144 1.57778 -0.126378 -1.89171 7.09058 0.984827 1.02198 7.60978 0.497421 29.2657 -14.2091 -10.6398 68.1188 34.5562 40.4457 1.89568e-06 -7.91633e-07 2.96684e-07 -4.00551 1.20737 -0.40589 2.74961e-07 -2.56643e-06 -3.00215 8.03012 -4.95136 0.697617 -31.522 -17.7867 14.281 -69.2479 32.7919 -36.1802 -2.80367e-06 -2.22681e-07 2.45298e-06 7.36706 3.08976 0.255203 1.18199e-06 8.87043e-08 3.00001 -8.0304 -4.95134 -0.697615 174.063 1.24482 1.37176 180 7.01548e-15 178.926 176.797 5.24697 179.777 4.00052e-07 2.66891e-06 0.041361 -18.5198 67.9405 19.4842 8.13649 25.2327 -3.48773 -174.963 1.12888 0.575081 4.54188e-06 -4.6773e-06 -1.08539 -1.32556 -6.44044 0.361441 5.81824e-08 -4.00362e-06 -0.118904 19.8186 69.3158 -20.6968 -8.13781 25.2523 3.4616 
52.2405 85.5999 8.1164 0.203322 0.694416 0.34457 -0.0855159 -2.03349 -0.0663887 -0.186059 -0.0640455 -0.128986 -0.184519 1.58102 -0.125817 -1.92948 7.09029 0.986302 1.09933 7.62134 0.490116 29.2729 -14.2179 -10.649 68.1084 34.5663 40.4491 1.89568e-06 -7.91633e-07 2.96684e-07 -4.00568 1.19739 -0.406565 2.74961e-07 -2.56643e-06 -3.00215 8.03012 -4.95136 0.697617 -31.5157 -17.7818 14.2766 -69.2454 32.8059 -36.1854 -2.80367e-06 -2.22681e-07 2.45298e-06 7.37336 3.05923 0.258855 1.18199e-06 8.87043e-08 3.00001 -8.0304 -4.95134 -0.697615 174.075 1.22067 1.36963 180 7.01548e-15 178.926 176.792 5.22593 179.779 4.00052e-07 2.66891e-06 0.0413234 -18.5253 67.9357 19.4803 8.13649 25.2327 -3.48773 -174.955 1.11128 0.580796 4.54188e-06 -4.6773e-06 -1.08616 -1.30915 -6.40499 0.362239 5.81824e-08 -4.00362e-06 -0.117273 19.799 69.2949 -20.6771 -8.13774 25.2512 3.46302 
52.2439 85.5981 8.10953 0.195152 0.684106 0.349472 -0.0848808 -2.03149 -0.0665178 -0.184172 -0.0600426 -0.12823 -0.182644 1.58503 -0.125107 -1.97469 7.09053 0.988456 1.19072 7.63419 0.481744 29.2813 -14.2276 -10.6589 68.0964 34.5772 40.4528 1.89568e-06 -7.91633e-07 2.96684e-07 -4.00579 1.18557 -0.40737 2.74961e-07 -2.56643e-06 -3.00215 8.03012 -4.95136 0.697617 -31.5085 -17.7757 14.271 -69.2429 32.8213 -36.1922 -2.80367e-06 -2.22681e-07 2.45298e-06 7.3815 3.02373 0.263061 1.18199e-06 8.87043e-08 3.00001 -8.0304 -4.95134 -0.697615 174.088 1.19152 1.3675 180 7.01547e-15 178.925 176.786 5.20075 179.78 4.00052e-07 2.66891e-06 0.0413104 -18.5319 67.9299 19.4756 8.13649 25.2327 -3.48773 -174.945 1.08938 0.587927 4.54188e-06 -4.6773e-06 -1.08707 -1.28947 -6.36224 0.363303 5.81824e-08 -4.00362e-06 -0.115376 19.7758 69.2701 -20.6537 -8.13766 25.2499 3.46473 
